<mxfile host="app.diagrams.net" modified="2021-06-16T08:49:30.827Z" agent="5.0 (Windows NT 10.0; Win64; x64) AppleWebKit/537.36 (KHTML, like Gecko) Chrome/91.0.4472.106 Safari/537.36" etag="zyrEGA-ERsQIR_02GK-C" version="14.7.9" type="github">
  <diagram id="6I0OCvxSQrVGMHxT2VVA" name="Page-1">
    <mxGraphModel dx="1422" dy="778" grid="1" gridSize="10" guides="1" tooltips="1" connect="1" arrows="1" fold="1" page="1" pageScale="1" pageWidth="850" pageHeight="1100" math="0" shadow="0">
      <root>
        <mxCell id="0" />
        <mxCell id="1" parent="0" />
        <mxCell id="dKdSaXE48SgPbhcamS2K-31" value="" style="whiteSpace=wrap;html=1;strokeColor=none;strokeWidth=1;fillColor=#f5f5f5;fontSize=14;" parent="1" vertex="1">
          <mxGeometry x="250" y="260" width="1060" height="410" as="geometry" />
        </mxCell>
        <mxCell id="dKdSaXE48SgPbhcamS2K-55" value="&lt;b&gt;rtsp流&lt;/b&gt;" style="html=1;whiteSpace=wrap;fillColor=#ffff99;shape=mxgraph.archimate3.application;appType=collab;archiType=square;fontSize=14;" parent="1" vertex="1">
          <mxGeometry x="300" y="409" width="150" height="75" as="geometry" />
        </mxCell>
        <mxCell id="dKdSaXE48SgPbhcamS2K-56" value="" style="html=1;whiteSpace=wrap;fillColor=#ffff99;shape=mxgraph.archimate3.application;appType=event;archiType=rounded;fontSize=14;" parent="1" vertex="1">
          <mxGeometry x="818" y="330" width="150" height="91" as="geometry" />
        </mxCell>
        <mxCell id="dKdSaXE48SgPbhcamS2K-61" style="edgeStyle=elbowEdgeStyle;rounded=1;elbow=vertical;html=1;dashed=1;startSize=10;endArrow=block;endFill=0;endSize=10;jettySize=auto;orthogonalLoop=1;strokeColor=#808080;fontSize=14;" parent="1" edge="1">
          <mxGeometry relative="1" as="geometry">
            <mxPoint x="452.5" y="450" as="sourcePoint" />
            <mxPoint x="530" y="450" as="targetPoint" />
          </mxGeometry>
        </mxCell>
        <mxCell id="dKdSaXE48SgPbhcamS2K-63" value="原先流程" style="text;strokeColor=none;fillColor=none;html=1;fontSize=24;fontStyle=1;verticalAlign=middle;align=center;" parent="1" vertex="1">
          <mxGeometry y="190" width="1590" height="40" as="geometry" />
        </mxCell>
        <mxCell id="qzy7VnZ34UvN2jwA3mP_-2" value="&lt;b&gt;STARDUST&lt;/b&gt;" style="html=1;whiteSpace=wrap;fillColor=#AFFFAF;shape=mxgraph.archimate3.tech;techType=sysSw;fontSize=14;" vertex="1" parent="1">
          <mxGeometry x="530" y="408.25" width="180" height="76.5" as="geometry" />
        </mxCell>
        <mxCell id="qzy7VnZ34UvN2jwA3mP_-4" style="edgeStyle=elbowEdgeStyle;rounded=1;elbow=vertical;html=1;dashed=1;startSize=10;endArrow=block;endFill=0;endSize=10;jettySize=auto;orthogonalLoop=1;strokeColor=#808080;fontSize=14;entryX=0;entryY=0.75;entryDx=0;entryDy=0;entryPerimeter=0;" edge="1" parent="1">
          <mxGeometry relative="1" as="geometry">
            <mxPoint x="720" y="446" as="sourcePoint" />
            <mxPoint x="810" y="446.12" as="targetPoint" />
          </mxGeometry>
        </mxCell>
        <mxCell id="qzy7VnZ34UvN2jwA3mP_-9" value="&lt;h1&gt;&lt;font style=&quot;font-size: 15px&quot;&gt;some times&lt;/font&gt;&lt;/h1&gt;" style="text;html=1;strokeColor=none;fillColor=none;spacing=5;spacingTop=-20;whiteSpace=wrap;overflow=hidden;rounded=0;" vertex="1" parent="1">
          <mxGeometry x="720" y="396.5" width="110" height="53.5" as="geometry" />
        </mxCell>
        <mxCell id="qzy7VnZ34UvN2jwA3mP_-12" value="" style="shape=actor;whiteSpace=wrap;html=1;" vertex="1" parent="1">
          <mxGeometry x="838" y="345" width="40" height="60" as="geometry" />
        </mxCell>
        <mxCell id="qzy7VnZ34UvN2jwA3mP_-20" value="" style="edgeStyle=orthogonalEdgeStyle;rounded=0;orthogonalLoop=1;jettySize=auto;html=1;" edge="1" parent="1" source="qzy7VnZ34UvN2jwA3mP_-15" target="qzy7VnZ34UvN2jwA3mP_-12">
          <mxGeometry relative="1" as="geometry" />
        </mxCell>
        <mxCell id="qzy7VnZ34UvN2jwA3mP_-15" value="&lt;b&gt;&lt;font style=&quot;font-size: 15px&quot;&gt;capture results&lt;/font&gt;&lt;/b&gt;" style="text;html=1;strokeColor=none;fillColor=none;align=center;verticalAlign=middle;whiteSpace=wrap;rounded=0;" vertex="1" parent="1">
          <mxGeometry x="898" y="365" width="40" height="20" as="geometry" />
        </mxCell>
        <mxCell id="qzy7VnZ34UvN2jwA3mP_-16" value="" style="html=1;whiteSpace=wrap;shape=mxgraph.archimate3.application;appType=event;archiType=rounded;fontSize=14;fillColor=#21FF55;" vertex="1" parent="1">
          <mxGeometry x="818" y="450" width="150" height="90" as="geometry" />
        </mxCell>
        <mxCell id="qzy7VnZ34UvN2jwA3mP_-17" value="&lt;b&gt;&lt;font style=&quot;font-size: 15px&quot;&gt;marked&lt;br&gt;results&lt;/font&gt;&lt;/b&gt;" style="text;html=1;strokeColor=none;fillColor=none;align=center;verticalAlign=middle;whiteSpace=wrap;rounded=0;" vertex="1" parent="1">
          <mxGeometry x="898" y="487.5" width="40" height="15" as="geometry" />
        </mxCell>
        <mxCell id="qzy7VnZ34UvN2jwA3mP_-18" value="" style="shape=actor;whiteSpace=wrap;html=1;" vertex="1" parent="1">
          <mxGeometry x="838" y="463.5" width="40" height="60" as="geometry" />
        </mxCell>
        <mxCell id="qzy7VnZ34UvN2jwA3mP_-19" style="edgeStyle=elbowEdgeStyle;rounded=1;elbow=vertical;html=1;dashed=1;startSize=10;endArrow=block;endFill=0;endSize=10;jettySize=auto;orthogonalLoop=1;strokeColor=#808080;fontSize=14;entryX=0;entryY=0.75;entryDx=0;entryDy=0;entryPerimeter=0;" edge="1" parent="1">
          <mxGeometry relative="1" as="geometry">
            <mxPoint x="970" y="442.12" as="sourcePoint" />
            <mxPoint x="1081" y="441.9999999999999" as="targetPoint" />
            <Array as="points" />
          </mxGeometry>
        </mxCell>
        <mxCell id="qzy7VnZ34UvN2jwA3mP_-23" value="&lt;font style=&quot;font-size: 15px&quot;&gt;&lt;b&gt;Calculate results&lt;/b&gt;&lt;/font&gt;" style="html=1;outlineConnect=0;whiteSpace=wrap;fillColor=#99ffff;shape=mxgraph.archimate3.application;appType=event;archiType=rounded" vertex="1" parent="1">
          <mxGeometry x="1090" y="405" width="150" height="75" as="geometry" />
        </mxCell>
      </root>
    </mxGraphModel>
  </diagram>
</mxfile>
